<?xml version="1.0" standalone="no"?>
<!DOCTYPE svg PUBLIC "-//W3C//DTD SVG 20010904//EN"
 "http://www.w3.org/TR/2001/REC-SVG-20010904/DTD/svg10.dtd">
<svg version="1.0" xmlns="http://www.w3.org/2000/svg"
 width="1024.000000pt" height="1024.000000pt" viewBox="0 0 1024.000000 1024.000000"
 preserveAspectRatio="xMidYMid meet">

<g transform="translate(0.000000,1024.000000) scale(0.100000,-0.100000)"
fill="#000000" stroke="none">
<path d="M5042 7451 c-18 -12 -67 -69 -110 -127 -171 -234 -362 -465 -502
-604 -163 -164 -247 -231 -317 -254 -27 -8 -261 -53 -521 -100 -526 -94 -524
-93 -563 -180 -32 -70 -26 -106 45 -250 95 -193 396 -758 721 -1349 54 -100
94 -182 89 -187 -5 -5 -157 -5 -339 -1 -181 5 -339 5 -350 1 -42 -16 -58 -46
-52 -97 5 -51 40 -93 77 -93 23 0 68 -38 254 -214 177 -169 233 -216 252 -216
24 0 73 29 84 49 13 26 13 67 -1 94 -7 12 -61 69 -122 127 -140 134 -140 145
-4 136 50 -3 155 -9 232 -12 l140 -6 30 -33 c16 -17 128 -175 248 -351 435
-635 604 -870 667 -928 28 -25 50 -36 71 -36 44 0 92 25 120 63 91 124 433
632 696 1037 67 102 134 200 149 218 l29 32 265 9 c254 8 290 6 290 -19 0 -4
-48 -51 -107 -104 -122 -110 -153 -148 -153 -189 0 -33 48 -87 77 -87 31 1 55
19 278 215 119 105 224 194 233 199 9 5 36 13 61 18 52 9 70 22 87 64 10 23
10 41 3 68 -18 65 -16 65 -456 53 -421 -11 -431 -10 -417 37 6 20 146 281 234
436 24 41 64 113 90 160 26 47 71 126 101 176 30 49 70 118 89 152 19 35 51
91 71 125 19 34 73 127 119 207 46 80 124 213 174 295 72 120 90 157 90 187
-2 55 -35 94 -97 112 -29 9 -248 47 -487 86 -535 87 -574 95 -629 127 -116 67
-428 436 -710 838 -35 50 -75 99 -88 109 -38 28 -101 31 -141 7z m244 -482
c99 -129 107 -140 228 -289 60 -74 125 -152 144 -172 20 -21 33 -40 30 -43 -2
-3 -276 -4 -607 -3 l-602 3 44 46 c24 26 102 116 173 201 205 245 286 338 294
338 4 0 10 -51 13 -112 5 -84 11 -116 22 -124 8 -6 15 -16 15 -21 0 -12 33
-23 68 -23 13 0 37 13 53 29 29 29 29 31 29 145 0 92 3 116 14 116 7 0 45 -41
82 -91z m694 -719 c10 -5 22 -22 27 -37 5 -16 9 -417 8 -916 0 -868 0 -889
-19 -903 -17 -12 -159 -14 -925 -14 -828 0 -906 1 -923 17 -17 15 -18 57 -18
924 l0 908 22 15 c20 14 123 16 916 16 564 0 900 -4 912 -10z m405 -60 c377
-53 459 -69 478 -91 24 -30 21 -59 -12 -120 -15 -30 -75 -142 -133 -249 -122
-228 -302 -563 -396 -737 -35 -68 -69 -123 -73 -123 -26 0 -29 64 -29 674 0
349 3 641 6 650 7 19 -8 20 159 -4z m-2477 -2 c9 -9 12 -173 12 -675 l0 -663
-24 0 c-21 0 -52 54 -289 508 -365 696 -357 678 -314 727 23 28 32 30 298 71
322 49 302 47 317 32z m1881 -2032 c9 -11 -11 -47 -97 -177 -137 -207 -433
-664 -458 -706 -20 -36 -34 -42 -34 -15 -1 9 -2 84 -3 165 l-2 149 -33 29
c-41 37 -89 39 -129 5 l-28 -24 -3 -189 c-2 -103 -7 -192 -11 -196 -4 -4 -45
48 -91 115 -46 68 -163 238 -260 378 -271 393 -313 457 -306 469 5 8 216 11
725 11 601 0 720 -2 730 -14z"/>
<path d="M5395 5760 c-102 -14 -177 -75 -214 -175 -41 -110 -36 -438 9 -530
48 -100 139 -156 253 -157 72 0 129 17 179 55 102 78 121 142 116 400 l-3 193
-33 66 c-35 72 -78 112 -145 133 -58 19 -103 23 -162 15z m92 -200 c17 -10 37
-29 44 -42 16 -30 23 -183 14 -293 -8 -104 -29 -135 -90 -135 -89 0 -105 38
-104 237 0 175 9 211 59 235 43 22 38 22 77 -2z"/>
<path d="M4630 5751 c-56 -18 -110 -53 -154 -102 -77 -85 -73 -110 26 -164
l51 -28 41 46 c23 25 51 50 63 56 51 26 123 0 144 -51 19 -46 -17 -99 -177
-263 -189 -194 -195 -201 -196 -264 -2 -84 -14 -81 302 -81 l278 0 6 23 c3 12
6 46 6 75 0 83 -15 92 -151 92 -129 0 -129 -11 -1 126 105 113 146 190 146
278 0 110 -78 215 -185 249 -53 17 -155 21 -199 8z"/>
</g>
</svg>
